<?xml version="1.0" encoding="utf-8"?>
<!-- Uploaded to SVGRepo https://www.svgrepo.com -->
<svg version="1.1" id="Layer_1" xmlns="http://www.w3.org/2000/svg" xmlns:xlink="http://www.w3.org/1999/xlink" x="0px" y="0px"
	 width="248px" height="256px" fill="white" viewBox="0 0 248 256" enable-background="new 0 0 248 256" xml:space="preserve">
<path d="M2,30v224h39v-30h12c18.085,0,31.965-15.162,31.965-33.346v-19.666h14.033c3.755,0,6.72-2.965,6.72-6.621
	c0-0.889-0.099-1.779-0.494-2.569l-19.468-47.435c0,0-1.779-18.085-3.36-25.002C75.181,58.132,40.751,30,3,30
	C2.704,30,2.988,30,2,30z M54.824,116.635c0-4.941,3.953-8.894,8.894-8.894s8.894,3.953,8.894,8.894
	c0,4.941-3.953,8.894-8.894,8.894S54.824,121.576,54.824,116.635z M101,74.383c0,39.992,32.508,72.5,72.5,72.5
	s72.5-32.508,72.5-72.5C246,34.45,213.492,2,173.5,2C133.625,2,101.117,34.45,101,74.383z M115.325,74.383
	c0-32.099,26.077-58.175,58.175-58.175s58.175,26.077,58.175,58.175s-26.077,58.175-58.175,58.175
	C141.752,132.559,115.675,106.482,115.325,74.383z M209.811,60.234c-1.345-2.222-4.151-3.742-7.367-2.105l-25.667,11.46V39.244
	c0-1.637-0.585-3.099-1.637-4.21l-0.058-0.058c-1.052-0.935-2.28-1.345-3.742-1.345c-2.806,0-5.73,2.105-5.73,5.613v39.7
	c0,2.163,1.228,4.21,3.157,5.262c0.994,0.468,1.871,0.702,2.689,0.702c0.877,0,1.871-0.292,2.806-0.702l33.151-15.845
	c1.462-0.76,2.514-1.988,2.982-3.45C210.746,63.391,210.571,61.696,209.811,60.234L209.811,60.234z"/>
</svg>
